<?xml version="1.0" encoding="UTF-8"?>
<svg version="1.1" viewBox="0 0 2048 1344" width="1280" height="1280" xmlns="http://www.w3.org/2000/svg">
<path transform="translate(207,157)" d="m0 0h1549l16 2 10 4 10 8 8 10 5 11 2 13 1 23 32 1 12 3 12 6 10 9 6 9 4 9 1 4v819l-5 13-7 10-9 8-12 6-7 2-10 1-295 1-4 10-5 24-2 6h-1l-2-20-4-15-2-5-1187-1-52-1-10-3-11-6-10-10-8-14v-2l-31-1-17-3-10-5-11-10-8-14-2-6-1-24v-684l1-11 4-10 8-11 10-9 7-4-2-4-9-6-8-8-6-10-4-10-1-10v-46l2-13 4-11 6-8 10-9 13-6z" fill="#FCE9C8"/>
<path transform="translate(207,157)" d="m0 0h1549l16 2 10 4 10 8 8 10 5 11 2 13 1 23 32 1 12 3 12 6 10 9 6 9 4 9 1 4v819l-5 13-7 10-9 8-12 6-7 2-10 1-295 1-4 10-5 24-2 6h-1l-2-20-4-15-2-5-1187-1-52-1-10-3-11-6-10-10-8-14v-2l-31-1-17-3-10-5-11-10-8-14-2-6-1-24v-684l1-11 4-10 8-11 10-9 7-4-2-4-9-6-8-8-6-10-4-10-1-10v-46l2-13 4-11 6-8 10-9 13-6zm259 143-5 6-5 11-4 17-1 7v10h-2l-1-14-4-19-5-12-4-5-231 1-13 5-9 6-8 9-4 9-2 13-1 46v650l1 12 4 10 5 8 9 8 10 6 13 2 1266 1 12-2 16-8 8-7 7-10 5-11 4-17 2-15 1 1 3 19 3 12 7 14 7 9 13 9 12 5 4 1 28 1 47-1 111-1 12-4 9-6 8-8 6-11 2-13v-702l-2-10-6-11-8-9-10-6-10-4-1297-1z" fill="#EBD0E4"/>
<path transform="translate(1179,651)" d="m0 0h16l17 4 14 7 10 9 7 9 6 12 3 14v16l-3 16-2 10 19 1 11 2 16 5 11 6 10 9 7 8 3 5v2h3l2-6 11-27 5-14 9-20 10-17 9-12 5-5h2l2-4 10-6 13-5 6-1h20l16 8 4 4 1 2 11-3 15-5 20-2 16 2 12 4 10 5 11 10 8 13 4 13v21l-6 23 6-2 15-7 18-5 9-1h23l15 3 12 5 10 6 9 7 7 7 9 14 5 12 3 11 2 15 12 1 10 4 10 7v2h2l7 11 3 12v8l-5 14-6 12-9 13-11 13-10 9-23 12-25 10-6 7-24 16-14 7-15 5-16 3h-22l-19-5-16-7-11-8-6 1-9 7-17 8-16 4h-23l-12-4-11-6-6-4-5 1-12 6-16 5-10 2h-21l-15-4-13-7-3-2v-2l-4-2-8-10-6-10-6 4-8 7-16 11-14 7-24 7-5 1h-26l-21-6-12-6-9-7-11-10-4-5v-2l-5-1-7 10-9 11-11 8-10 4-14 4h-20l-17-6-8-5-6 1-16 6-17 4h-22l-17-5-12-6-5-3-6 1-10 5-21 7-5 1h-22l-16-4-14-7-10-9-7-8-6-11-6-15-13 4-17 6-10 4-11 9-18 13-11 7-13 5-24 6h-25l-16-4-12-5-9-5-8-6v-2l-3-1-9-12-8-14-5-12-4-20-1-8-8 1-16 4-13 2h-26l-7-1h-8l-7 14-15 23-10 13-9 10-13 12-16 11-16 7-15 5-16 3h-28l-17-4-16-8-10-7-11-10-7-9-6-11-4-9-4-18v-25l3-17 5-15 8-15 11-14 9-8v-8l-2-7-1-10v-23l2-16 7-20 5-12 10-15 9-11 9-10 14-11 15-10 23-11 21-7 26-6 22-3 16-1h24l23 2 23 4 16 5 16 7 13 7 10 7 2 2-7 8 5-5 12-11 10-8 26-17 4-1 5 8 6 18 3 16 3 26 2 34 1-10 2-1 20-1 20 1 14 4 14 7 12 9 4-1 8-14 9-10 10-7 11-5 7-2 8-1h17l17 3 18 6 16 8 14 10 1 3h6l8-6 10-4 9-1 5-5 3-5 9-17 11-12 9-7 13-5 11-2 12 1 14 5 9 7 7 10 5 13 5-5 7-12 16-22 9-9 6-7 15-11 14-7 18-6z" fill="#FDFCFD"/>
<path transform="translate(207,157)" d="m0 0h1549l16 2 10 4 10 8 8 10 5 11 2 13 1 23 32 1 12 3 12 6 10 9 6 9 4 9 1 4v819l-5 13-7 10-9 8-12 6-7 2-10 1-295 1-4 10-5 24-2 6h-1l-2-20-4-15-2-5-1187-1-52-1-10-3-11-6-10-10-8-14v-2l-31-1-17-3-10-5-11-10-8-14-2-6-1-24v-684l1-11 4-10 8-11 10-9 7-4-2-4-9-6-8-8-6-10-4-10-1-10v-46l2-13 4-11 6-8 10-9 13-6zm384 4-59 1h-255l-70 1-15 4-11 8-7 8-4 10-1 10-1 44 1 16 4 9 6 8h2l2 4 9 6 11 4 6 1h128l92 1-1-4-14-9-13-5-20-4-7-1 22-4 15-5 11-6 10-9 6-8 5-11 4-15 3-21 2 18 5 19 7 14 8 9 11 7 14 6 16 4 14 2-24 4-15 5-12 7-7 6v2l12-1h1275l13-2 10-4 9-7 7-9 5-12 2-11v-43l-2-12-5-14-7-8-11-8-14-3h-103l-248-1-46-1zm-125 139-5 6-5 11-4 17-1 7v10h-2l-1-14-4-19-5-12-4-5-231 1-13 5-9 6-8 9-4 9-2 13-1 46v650l1 12 4 10 5 8 9 8 10 6 13 2 1266 1 12-2 16-8 8-7 7-10 5-11 4-17 2-15 1 1 3 19 3 12 7 14 7 9 13 9 12 5 4 1 28 1 47-1 111-1 12-4 9-6 8-8 6-11 2-13v-702l-2-10-6-11-8-9-10-6-10-4-1297-1z" fill="#C38FD3"/>
<path transform="translate(1182,683)" d="m0 0 14 1 10 4 8 7 5 10 1 3v16l-5 15-6 10-7 7-9 4h-7l-4-2-2-13-5-5-5-2-8 1-8 5-8 9-8 16-5 12h41l2 2 1 5v7l-4 12-5 6-2 1-25-1-16-1-7 38-4 31-4 38-4 20-5 12-4 5-10 6-4 1h-15l-7-3-5-4-4-8-1-5v-17l-4 4-8 10-10 9-15 9-11 4-5 1h-17l-12-4-10-9-5-8-5-16h-2l-7 11-11 11-10 7-12 6-8 2h-17l-12-4-8-6-6-7-4-10-1-5v-13l3-15 6-18 13-32 3-11-1-7-7-8-9-5h-2l-13 27-11 23-10 18-8 10-10 10-14 8-12 4-15 1-12 13-10 9-18 11-13 5-9 2h-20l-15-5-11-7-9-9-6-10-5-17-1-8v-10l3-20 6-20 8-18 9-15 11-13 11-11 10-7 16-8 9-3 6-1h23l9 2 12 6 10 10 8 16 3 13v31l-3 16-2 6 13-2 10-6 8-9 9-15 10-23 3-7 1-5-6-2-4-6-1-3v-15l7-14 9-8 10-4h17l16 4 16 7 11 7 10 10 5 9 1 4v7l-5 16-8 21-2 9v13l3 6 5 4 9 2h9l10-5 8-9 7-14 13-37 3-7-7-1-6-4-4-7-1-3v-9l1-3 13-3 11-4 10-9 9-16 6-11 7-8 8-3 9 1 6 4 2 4v10l-9 24-1 8 2 1 29 1h25l7-15 8-16 10-18 11-16 12-13 8-7 14-8 14-4z" fill="#C48FD4"/>
<path transform="translate(1416,700)" d="m0 0 8 1 5 3 3 4 1 10-6 16-16 34-11 25-11 30-7 25-2 10v10l3 8 5 4 4 1h10l11-4 8-7 5-8 14-38 8-16 6-11 8-10 8-5 3-1h11l5 4 2 5v14l-5 19-8 24-2 8v15l3 6 4 3 3 1h12l6-3 6-5 7-11 7-16 10-18 9-12 10-11 10-8 14-8 14-5 9-2h22l13 4 9 5 5 5 6 7 5 11 3 10 2 23-2 18-3 14v3l11-2 9-5 6-5 7-8 9 1 6 5-1 6-10 18-11 13-8 7-12 7-13 4-14 1-15 16-10 8-17 10-15 5-13 2-13-1-10-3-13-7-8-7-7-10-4-9-3-10-4 5-7 11-11 12-10 9-16 8-4 1h-16l-10-4-8-8-5-11-3-14v-4l-3 3-8 11-14 14-11 7-8 4-9 2h-16l-11-4-8-7-5-10-2-9v-17l1-5-16 8-12 3-12 1-19 19-16 11-13 6-9 3-6 1h-19l-14-4-12-7-10-10-8-16-3-12v-26l4-19 7-19 11-21 10-14 7-8 8-7 10-7 16-8 15-4 15-1 14 2 12 5 9 7 7 10 5 11 3 12 1 12v11l-2 17-3 12-1 2 15-3 9-6 7-8 8-20 19-55 8-21 10-24 8-16 8-13 8-9 9-5z" fill="#C48FD4"/>
<path transform="translate(510,691)" d="m0 0h34l25 3 19 5 15 6 11 6 9 7 10 10 9 14 5 13 3 15v27l-4 17-6 15-7 12-7 9-10 10-15 10-14 6-14 4-14 2h-14l-12-3-13-6-9-1-5 5-13 28-7 13-9 13-8 10-16 16-14 10-17 8-17 4h-14l-15-3-12-5-9-7-7-7-6-10-4-12-1-6v-21l3-12 5-12 7-11 9-8 12-6 5-1h10l3 3 2 10 5 9 7 5 10 3h13l14-5 13-9 7-7 10-13 8-14 8-18 17-45 5-10 8-7 6-2h10l8 3 4 4 1 9-12 36-2 8v7l3 5 6 2h14l12-4 8-6 7-8 6-12 2-10v-14l-3-12-5-9-9-7-14-6-19-3h-26l-21 3-16 5-11 6-10 9-6 12-1 4v13l4 8 4 3 5 2 1 2v10l-4 10-7 9-8 7-12 6-12 3h-10l-10-2-14-7-9-10-5-10-4-16v-12l3-17 6-15 7-13 8-10 6-7 11-9 10-7 18-10 25-9 23-5z" fill="#C48FD4"/>
<path transform="translate(410,389)" d="m0 0h15l12 2 16 6 11 6 11 9 9 10 9 16 5 15 2 13v12l-3 15-5 13-6 11-8 10-8 8-10 7-16 9-17 8-12 3h-27l-14-3-13-5-15-10-11-10-8-11-8-16-3-10-1-8v-19l2-13 4-12 8-14 11-13 12-9 9-6 25-9 16-4z" fill="#FCEDFA"/>
<path transform="translate(1018,389)" d="m0 0h20l14 3 16 7 11 7 14 14 8 13 6 14 3 13v23l-5 19-8 15-9 11-11 10-13 8-17 9-14 5-8 2h-25l-15-3-15-6-15-10-12-12-9-14-6-15-2-9v-28l4-16 8-15 9-12 7-7 10-7 10-6 9-2 11-5 13-4z" fill="#FCEEFA"/>
<path transform="translate(611,389)" d="m0 0h19l14 3 12 5 11 6 10 8 8 8 7 11 6 12 4 14 1 8v14l-3 16-5 13-6 11-13 15-12 9-20 11-11 5-16 4h-26l-14-3-12-5-10-6-10-8-9-9-9-14-6-14-3-18v-14l3-17 7-16 9-13 11-11 15-10 6-3 4 1 8-5 19-6z" fill="#FBEDFA"/>
<path transform="translate(1426,389)" d="m0 0h17l16 3 15 6 14 10 7 6 8 10 9 17 4 13 1 6v23l-4 16-6 14-8 11-12 12-14 9-18 10-13 5-17 3-19-1-17-4-16-8-11-8-10-9-7-10-8-16-4-15v-27l4-15 8-16 7-9 5-6 13-10 12-7 7-1 12-6 13-4z" fill="#FBECF9"/>
<path transform="translate(1631,389)" d="m0 0h16l16 3 16 7 12 8 9 8 10 14 7 15 4 15v23l-4 16-6 14-7 10-9 10-10 8-13 8-21 10-15 4h-25l-15-3-13-5-14-9-12-11-9-12-8-17-3-13v-26l3-14 8-17 10-13 11-10 16-10 13-4 13-5z" fill="#FBEDFA"/>
<path transform="translate(1230,391)" d="m0 0 15 1 16 5 14 7 9 7 7 6 9 12 7 14 4 16v25l-4 16-8 16-9 11-10 9-11 7-13 6-10 2-19 1-19-3-15-6-12-8-8-7-10-13-7-14-4-12-1-6v-24l4-16 7-14 7-9 9-10 10-7 15-7 16-4z" fill="#FCEEFA"/>
<path transform="translate(812,392)" d="m0 0h24l16 4 17 9 11 9 9 10 7 11 5 12 3 15v18l-3 16-7 16-9 12-4 5-13 10-10 6-15 5-6 1h-26l-17-4-15-8-11-9-8-9-7-11-6-14-3-11-1-9v-9l2-15 6-16 6-10 9-11 8-8 10-6 15-6z" fill="#FCEDFA"/>
<path transform="translate(815,389)" d="m0 0h18l15 3 12 5 12 7 12 11 8 9 8 14 5 15 1 6v25l-4 15-8 16-7 10-12 12-18 11-16 8-13 5-13 2h-11l-19-3-5-1-7 9-9 12-14 21-2 6 5 1 21 7 21 4 16 2 29 2 25 1v1l-11 1-45 2-27 4-16 4-16 7-1 3 9 15 14 19 11 12 5 6-1 2-10-9-11-10-19-13-12-8h-3l-7 16-5 20-3 25-3 42-2-2-2-34-4-33-5-19-5-12-2-3-6 2-28 19-13 12-9 9-2-1 10-11 9-11 11-14 8-13 4-9-18-7-22-5-20-3-13-1-29-1-15-1v-1l56-3 17-2 22-5 13-4 9-4-2-6-12-18-10-13-5-6v-2h-2l-4-7 4 2 8 8 16 12 16 10 5 3 3-1 8-20 5-25 3-32 2-31h1l3 50 3 21 4 18 6 16 1 4 9-3 21-14 11-9 5-6-12-5-11-7-12-11-9-13-7-15-4-13v-27l4-16 8-16 8-10 2-3h2v-2l13-10 12-7 7-2 18-7 12-3zm-3 3-16 4-16 7-9 7-8 8-8 11-7 14-3 9-2 15v9l2 14 6 16 5 9 9 12 11 10 14 8 11 4 10 2h26l16-4 12-6 11-8 5-4 11-14 8-16 3-12 1-7v-18l-4-18-8-16-9-11-11-10-14-8-12-5-10-2z" fill="#C48FD3"/>
<path transform="translate(1227,427)" d="m0 0h10l9 2 11 6 7 7 8 16 2 12-1 16-4 13-6 9-8 7-10 5-9 2h-9l-10-2-8-4-10-9-6-10-3-9-1-6v-14l3-14 6-11 9-9 10-5z" fill="#FCEEFA"/>
<path transform="translate(449,189)" d="m0 0h1l4 28 5 17 7 12 6 7 11 7 14 6 16 4 17 3v1l-23 3-17 5-14 8-7 6-7 10-5 11-4 17-2 17h-2l-4-25-5-16-7-11-5-6-14-9-13-5-20-4-8-1 1-2 22-4 15-5 11-6 10-9 6-9 5-12 4-18z" fill="#32455E"/>
<path transform="translate(1529,1012)" d="m0 0h1l4 25 3 12 7 14 6 7v2l4 2 11 7 14 5 27 4v2l-32 8-12 5-10 7-7 8-4 6-5 13-5 24-2 6h-1l-2-20-4-15-6-12-9-10-10-7-14-6-30-7 3-2 24-4 12-4 11-6 7-6 7-10 5-11 4-17z" fill="#33465F"/>
<path transform="translate(1223,389)" d="m0 0h18l14 3 12 5 11 6 11 9 10 11 7 12 5 13 3 16v15l-3 15-5 13-6 11-9 11-9 8-11 7-24 13-12 4-13 2h-13l-14-2-15-5-13-7-11-9-9-9-9-14-5-11-4-17v-20l3-15 7-16 7-11 7-8 10-8 13-8 13-5 18-6zm7 2-16 2-16 5-15 8-10 9-9 11-8 14-4 13-1 6v24l3 13 6 14 9 13 8 9 13 9 12 6 16 4 17 1 17-2 11-4 13-7 11-9 9-10 8-13 5-13 2-10v-25l-4-16-7-14-7-9-5-6-10-8-14-8-15-5-15-2z" fill="#ECD1E4"/>
<path transform="translate(611,389)" d="m0 0h19l14 3 12 5 11 6 10 8 8 8 7 11 6 12 4 14 1 8v14l-3 16-5 13-6 11-13 15-12 9-20 11-11 5-16 4h-26l-14-3-12-5-10-6-10-8-9-9-9-14-6-14-3-18v-14l3-17 7-16 9-13 11-11 15-10 6-3 4 1 8-5 19-6zm-3 3-19 5-14 7-12 11-7 7-7 11-6 13-3 13v24l4 15 6 13 7 11 8 9 16 11 11 5 16 4h22l19-4 16-8 13-11 10-12 8-16 4-16 1-17-3-17-5-13-6-11-9-11-4-2v-2l-13-9-13-6-15-4z" fill="#ECD1E4"/>
<path transform="translate(410,389)" d="m0 0h15l12 2 16 6 11 6 11 9 9 10 9 16 5 15 2 13v12l-3 15-5 13-6 11-8 10-8 8-10 7-16 9-17 8-12 3h-27l-14-3-13-5-15-10-11-10-8-11-8-16-3-10-1-8v-19l2-13 4-12 8-14 11-13 12-9 9-6 25-9 16-4zm-5 3-16 4-14 6-12 9-11 12-8 13-5 12-2 8-1 11v11l3 16 5 13 7 11 8 10 7 7 13 8 16 6 11 2h25l12-3 16-8 13-10 10-11 8-13 5-14 2-11v-20l-4-16-6-14-8-11-12-12-11-7-14-6-13-3z" fill="#ECD1E4"/>
<path transform="translate(1631,389)" d="m0 0h16l16 3 16 7 12 8 9 8 10 14 7 15 4 15v23l-4 16-6 14-7 10-9 10-10 8-13 8-21 10-15 4h-25l-15-3-13-5-14-9-12-11-9-12-8-17-3-13v-26l3-14 8-17 10-13 11-10 16-10 13-4 13-5zm-4 3-16 4-12 5-10 6-14 14-9 14-5 12-2 7-1 8v18l3 15 5 12 6 10 7 9 9 9 11 7 11 5 16 4h26l13-3 16-8 13-10 10-11 9-16 4-13 2-16-1-16-4-15-7-14-10-13-9-8-14-9-13-5-10-2z" fill="#ECD1E4"/>
<path transform="translate(1018,389)" d="m0 0h20l14 3 16 7 11 7 14 14 8 13 6 14 3 13v23l-5 19-8 15-9 11-11 10-13 8-17 9-14 5-8 2h-25l-15-3-15-6-15-10-12-12-9-14-6-15-2-9v-28l4-16 8-15 9-12 7-7 10-7 10-6 9-2 11-5 13-4zm5 2-17 3-12 4-15 8-15 15-9 14-5 12-3 14v18l3 16 7 16 11 15 10 10 14 8 13 5 10 2h26l13-3 16-8 13-10 10-11 6-9 6-15 3-16v-16l-4-18-8-16-8-11-7-7-14-10-14-6-12-3-9-1z" fill="#ECD1E4"/>
<path transform="translate(1426,389)" d="m0 0h17l16 3 15 6 14 10 7 6 8 10 9 17 4 13 1 6v23l-4 16-6 14-8 11-12 12-14 9-18 10-13 5-17 3-19-1-17-4-16-8-11-8-10-9-7-10-8-16-4-15v-27l4-15 8-16 7-9 5-6 13-10 12-7 7-1 12-6 13-4zm6 2-19 3-14 5-11 6-10 9-9 10-8 14-4 10-3 16v14l3 16 7 17 7 10 9 10 8 7 17 9 16 4 15 1 17-2 9-2 17-9 10-8 9-9 9-14 5-12 3-16v-16l-3-16-5-12-7-12-9-10-8-7-13-8-13-5-9-2z" fill="#ECD1E4"/>
<path transform="translate(1059,806)" d="m0 0 7 1 16 1-3 11-12 39-5 10-9 8-12 5h-19l-10-5-6-7-3-11 1-14 5-16 5-8 7-4 12-2 19-1 5-2z" fill="#FDFBFD"/>
<path transform="translate(692,659)" d="m0 0 4 2 5 11 4 13 3 16 3 26 1 20v13h-1v-8l-21 8-5 3h-5l-4-22-8-17-11-17-10-11 2-6 12-11 29-19z" fill="#FCE9C8"/>
<path transform="translate(1487,706)" d="m0 0h18l11 4 8 7 3 7v17l-7 14-8 6-11 4h-18l-10-3-6-4-5-6-2-4-1-13 3-12 6-9 8-5z" fill="#C48FD4"/>
<path transform="translate(712,567)" d="m0 0 2 1 3 17 4 12 6 10 9 7 15 6 21 4-1 2-19 3-13 5-9 6-7 9-5 12-3 14-1 7-2-1-3-19-5-12-4-6-4-5-12-7-14-4-20-3v-1l19-3 17-5 10-6 7-8 5-12 3-15z" fill="#32455E"/>
<path transform="translate(770,405)" d="m0 0h2l-2 4-10 10-7 10-7 15-3 10-1 7v23l7 21 5 10 8 11 6 7 16 11 15 6 15 3 18 1-2 3-8 2h-30l-8-2-9-3-12-6-10-8-9-8-9-12-7-15-3-9v-32l4-15 6-12 10-13 11-10z" fill="#EBD0E3"/>
<path transform="translate(1385,429)" d="m0 0h22l8 20 16 41 4 10 2 1 3-11 11-27 13-33 13-1h10l-1 3-8 1v83l8 1v3h-31v-3l8-1 1-1v-74l-1-1-15 39-12 30-5 12h-2l-12-31-15-39-6-14v-2h-2l1 2 1 77 9 3 1 2-4 1h-19v-3l9-3v-82h-9l-1-2z" fill="#31435C"/>
<path transform="translate(376,435)" d="m0 0h8v2l-2 1h-8l4 13 12 34 7 19 1 1 9-23 6-16-1-9-7-18-8-1-1-2 5-1h28v2l-2 1h-7l4 13 10 28 7 19 3 7 12-31 11-28v-4l-11-4v-2l4-1 20 1-4 4-5 3-14 38-15 39-3 7h-2l-19-54-3-4-12 33-9 24h-3l-13-36-16-45-3-6-6-2v-1z" fill="#31435D"/>
<path transform="translate(1236,834)" d="m0 0h13l8 4 5 8v15l-4 10-8 10-8 5-7 2h-8l-8-3-5-6-2-5v-12l4-12 6-8 9-6z" fill="#FDFBFC"/>
<path transform="translate(1597,833)" d="m0 0 8 1 8 4 5 6 1 3v13l-5 12-7 8-9 6-9 2-9-1-6-4-4-6-1-3v-14l4-10 6-8 8-6z" fill="#FDFBFC"/>
<path transform="translate(1485,203)" d="m0 0h8l8 3 7 5 6 10 1 12-3 9-6 7-8 5-4 1h-10l-9-4-7-6-4-6-1-3v-12l4-9 6-7 8-4z" fill="#32455E"/>
<path transform="translate(1672,204)" d="m0 0h14l8 4 7 7 3 7 1 11-3 9-7 8-10 5h-11l-9-4-8-7-4-8v-13l5-10 7-6z" fill="#32455E"/>
<path transform="translate(718,834)" d="m0 0h12l7 3 6 7 1 4v11l-4 11-6 8-7 6-7 3-10 1-9-3-5-6-2-5v-13l3-10 8-10 7-5z" fill="#FDFBFC"/>
<path transform="translate(410,389)" d="m0 0h15l12 2 16 6 11 6 11 9 9 10 9 16 5 15 2 13v12l-3 15-5 13-6 11-8 10-8 8-10 7-16 9-17 8-12 3h-27l-14-3-13-5-15-10-11-10-8-11-8-16-3-10-1-8v-19l2-13 4-12 8-14 11-13 12-9 9-6 25-9 16-4zm-5 3-16 4-14 6-12 9-11 12-8 13-5 12-2 8-1 11v11l3 16 5 13 7 11 8 10 7 7 13 8 16 6 11 2h25l12-3 16-8 13-10 10-11 8-13 5-14 2-11v-20l-4-16-6-14-8-11-12-12-11-7-14-6-13-3zm-40 13-11 6-10 9-13 13-7 12-4 11-2 11v26l3 13 8 16 9 11 11 10 10 7 14 6 12 3h27l11-2 4-3-22-1-19-5-16-8-10-8-9-11-8-13-5-12-3-13v-23l3-14 6-15 7-10 13-13 2-1z" fill="#C48FD4"/>
<path transform="translate(1583,203)" d="m0 0 11 2 6 4 7 8 2 5 1 10-2 8-6 8-7 5-6 2h-9l-10-4-7-6-4-7-1-4v-10l4-9 4-5 8-5z" fill="#32455E"/>
<path transform="translate(1227,427)" d="m0 0h10l9 2 11 6 7 7 8 16 2 12-1 16-4 13-6 9-8 7-10 5-9 2h-9l-10-2-8-4-10-9-6-10-3-9-1-6v-14l3-14 6-11 9-9 10-5zm-3 3-10 5-7 9-4 10-1 5v30l3 13 6 9 7 6 10 3h8l10-4 6-5 6-11 2-9v-32l-3-12-6-10-9-6-4-1z" fill="#32455E"/>
<path transform="translate(1223,389)" d="m0 0h18l14 3 12 5 11 6 11 9 10 11 7 12 5 13 3 16v15l-3 15-5 13-6 11-9 11-9 8-11 7-24 13-12 4-13 2h-13l-14-2-15-5-13-7-11-9-9-9-9-14-5-11-4-17v-20l3-15 7-16 7-11 7-8 10-8 13-8 13-5 18-6zm7 2-16 2-16 5-15 8-10 9-9 11-8 14-4 13-1 6v24l3 13 6 14 9 13 8 9 13 9 12 6 16 4 17 1 17-2 11-4 13-7 11-9 9-10 8-13 5-13 2-10v-25l-4-16-7-14-7-9-5-6-10-8-14-8-15-5-15-2zm-51 13-10 6-11 9-11 11-8 13-5 13-2 13v20l3 15 5 12 7 10 9 10 7 7 11 7 11 5 13 4h31l15-3-1-3h-22l-15-3-16-7-12-8-9-9-7-10-9-19-3-10-1-8v-13l2-15 5-15 9-14 9-10 6-5z" fill="#C48FD4"/>
<path transform="translate(611,389)" d="m0 0h19l14 3 12 5 11 6 10 8 8 8 7 11 6 12 4 14 1 8v14l-3 16-5 13-6 11-13 15-12 9-20 11-11 5-16 4h-26l-14-3-12-5-10-6-10-8-9-9-9-14-6-14-3-18v-14l3-17 7-16 9-13 11-11 15-10 6-3 4 1 8-5 19-6zm-3 3-19 5-14 7-12 11-7 7-7 11-6 13-3 13v24l4 15 6 13 7 11 8 9 16 11 11 5 16 4h22l19-4 16-8 13-11 10-12 8-16 4-16 1-17-3-17-5-13-6-11-9-11-4-2v-2l-13-9-13-6-15-4zm-39 11-14 9-12 11-7 7-9 15-4 11-2 11v23l3 14 5 12 7 10 9 10 10 9 11 6 9 4 14 4h28l15-3-3-2-20-1-17-4-16-8-11-8-7-7-7-10-8-17-4-13v-29l4-15 7-14 7-10 8-8 6-5v-2z" fill="#C48FD4"/>
<path transform="translate(1631,389)" d="m0 0h16l16 3 16 7 12 8 9 8 10 14 7 15 4 15v23l-4 16-6 14-7 10-9 10-10 8-13 8-21 10-15 4h-25l-15-3-13-5-14-9-12-11-9-12-8-17-3-13v-26l3-14 8-17 10-13 11-10 16-10 13-4 13-5zm-4 3-16 4-12 5-10 6-14 14-9 14-5 12-2 7-1 8v18l3 15 5 12 6 10 7 9 9 9 11 7 11 5 16 4h26l13-3 16-8 13-10 10-11 9-16 4-13 2-16-1-16-4-15-7-14-10-13-9-8-14-9-13-5-10-2zm-41 12-11 7-11 9-8 8-9 14-6 15-2 14v14l2 14 4 12 7 13 9 10 8 8 14 9 12 5 12 3h27l16-3 1-3h-24l-17-4-16-8-10-7-10-11-8-12-7-17-2-9v-27l2-11 8-17 7-10 7-8 9-7z" fill="#C48FD4"/>
<path transform="translate(1018,389)" d="m0 0h20l14 3 16 7 11 7 14 14 8 13 6 14 3 13v23l-5 19-8 15-9 11-11 10-13 8-17 9-14 5-8 2h-25l-15-3-15-6-15-10-12-12-9-14-6-15-2-9v-28l4-16 8-15 9-12 7-7 10-7 10-6 9-2 11-5 13-4zm5 2-17 3-12 4-15 8-15 15-9 14-5 12-3 14v18l3 16 7 16 11 15 10 10 14 8 13 5 10 2h26l13-3 16-8 13-10 10-11 6-9 6-15 3-16v-16l-4-18-8-16-8-11-7-7-14-10-14-6-12-3-9-1zm-47 12-15 10-13 12-9 12-7 14-3 12-1 8v17l4 18 8 16 7 9 10 10 15 10 12 5 12 3h29l13-3 2-2-5-1h-20l-15-4-12-5-10-6-11-10-9-12-8-17-4-14-1-7v-13l3-17 7-16 7-11 10-11 6-5z" fill="#C48FD4"/>
<path transform="translate(586,435)" d="m0 0h65l1 1 1 7v17h-4l-7-19v-3l-34 1v39l15 1 3-10 3-6h2l1 16-1 19-3-1-5-14-1-1h-14v40l36 1 3-10 5-14 3-1v27l-4 1h-65v-3l9-1-1-83-8-1z" fill="#32455E"/>
<path transform="translate(1666,429)" d="m0 0 4 1v25l-4-2-7-20-34-1v41l15-1 6-14 3-1v35l-3-1-6-15h-14l-1 41 36-1 7-19 3-5 2 1-1 27h-69v-3l9-2v-82l-8-1-1-2z" fill="#33465F"/>
<path transform="translate(1426,389)" d="m0 0h17l16 3 15 6 14 10 7 6 8 10 9 17 4 13 1 6v23l-4 16-6 14-8 11-12 12-14 9-18 10-13 5-17 3-19-1-17-4-16-8-11-8-10-9-7-10-8-16-4-15v-27l4-15 8-16 7-9 5-6 13-10 12-7 7-1 12-6 13-4zm6 2-19 3-14 5-11 6-10 9-9 10-8 14-4 10-3 16v14l3 16 7 17 7 10 9 10 8 7 17 9 16 4 15 1 17-2 9-2 17-9 10-8 9-9 9-14 5-12 3-16v-16l-3-16-5-12-7-12-9-10-8-7-13-8-13-5-9-2zm-49 13-12 7-11 9-9 9-9 15-5 14-2 14v12l2 14 5 15 6 10 9 11 8 8 11 7 15 7 11 3 14 1 18-1 13-3v-3h-23l-17-4-11-5-10-6-10-9-7-8-8-14-6-16-2-7v-24l4-16 8-16 6-9 14-14z" fill="#C38ED3"/>
<path transform="translate(1026,433)" d="m0 0h12l9 3 5 3h2l5-6h3v27h-3l-5-13-4-6-9-4-11-1-9 3-7 6-6 12-1 5v37l4 13 7 9 6 3 5 1h7l11-4 6-4 7-18 2-1v29l-5-2-3-3-4 1-8 4-6 1h-9l-13-4-8-6-7-8-5-11-2-9v-17l2-10 5-12 9-10 8-5z" fill="#32455E"/>
<path transform="translate(815,435)" d="m0 0h8l-1 3-8 1-1 84h33l4-8 6-16 3-1v27l-4 1h-64v-3l10-1-1-83-9-1v-2z" fill="#32455E"/>
<path transform="translate(1674,197)" d="m0 0h10l8 2 10 6 6 8 3 9v14l-4 10-7 8-5 4-8 3h-17l-12-6-8-9-4-11v-13l6-12 6-7 8-4zm-2 7-10 5-6 7-3 7v13l4 8 9 8 8 3h11l10-5 8-9 2-8-1-11-4-8-7-7-7-3z" fill="#C48FD4"/>
<path transform="translate(1481,197)" d="m0 0h16l10 4 7 6 5 9 2 5v16l-4 9-4 6-9 6-8 3h-14l-9-3-9-7-5-7-3-11v-8l3-10 4-6 5-6 9-5zm4 6-8 3-6 4-4 5-4 9v12l3 6 6 7 6 4 6 2h10l7-3 8-6 4-5 2-8-1-12-6-10-8-6-7-2z" fill="#C48FD4"/>
<path transform="translate(1578,197)" d="m0 0h12l11 4 8 7 6 10 1 4v14l-4 10-9 10-8 4-3 1h-14l-11-4-6-4-6-8-3-7-1-6v-8l4-11 9-10 10-5zm5 6-9 2-9 6-5 7-2 6v10l3 8 7 8 8 4 4 1h9l9-4 7-6 4-7 1-10-2-9-6-8-6-5-5-2z" fill="#C590D4"/>
<path transform="translate(1224,430)" d="m0 0h14l8 3 6 5 6 12 2 9v32l-3 11-6 10-9 6-6 2h-8l-10-3-8-7-5-8-3-13v-21h1l1 13 4 7 4 11 6 8 6 5 6 4 8-1 7-6 6-12 2-6v-23l-4-15-6-12-8-5h-7l-9 2-4 5-4 6-4-1 1-6 6-7z" fill="#F7F0F8"/>
<path transform="translate(1477,429)" d="m0 0h10l-1 3-8 1v83l8 1v3h-31v-3l8-1 1-1v-74l-1-4h3l1-6z" fill="#32445D"/>
<path transform="translate(1467,422)" d="m0 0h15l8 3v2l-13 3h-13l-1 5-13 33-11 28-2 5-3-1-15-38-11-29v-5l4 4 9 18 7 21 2 2 4-4 4-1 5-9 4-11h2l1-6h2l1 2 3-9 4-6 2-1 1-3z" fill="#F8F2F9"/>
<path transform="translate(382,437)" d="m0 0h4v15l2 12v5l-1 3 5 4 1 3 4 2 6 1v-2l-4-2-2-3h2v-2l-2-1h2l-1-3 6-5-1 5h2v-13l-7-15v-3h7l4 8 5 14-1 9-13 34-3 3-6-16-13-36-4-11v-5z" fill="#F7F0F8"/>
<path transform="translate(420,438)" d="m0 0h6l3 3v8l2 7 2 10v7l5 2 2 3-1-5 7 1 6-7 3-9 1-8-1-4 3-6 9 1 1 5-12 31-11 28-2 1-6-16-13-36-4-11z" fill="#F8F2F9"/>
<path transform="translate(1382,157)" d="m0 0h374l16 2 10 4 10 8 8 10 2 6-3-3-6-8-10-9-10-5-3-1-11-1-363-1-14-1z" fill="#F6E4F1"/>
<path transform="translate(1266,601)" d="m0 0h17l4 2 1-2h9l3 3 1 3 1 20 3 1v2h-24v-25l-7-1v24l6 1v1h-14v-2h2v-23z" fill="#23334D"/>
<path transform="translate(1260,441)" d="m0 0 4 1 8 16 2 12-1 16-4 13-3 5-4 1-1 2-2-1-2-6 2-9 1-36-3-12h2z" fill="#32455E"/>
<path transform="translate(1394,435)" d="m0 0h2l7 16 25 65v5l-7-6-1-2 2-1-5-8-4-10-6-10-3-3-3-1 1 6-1 5h-2l-1 4-2-7-1-47z" fill="#F9F4FA"/>
<path transform="translate(1379,592)" d="m0 0h6l5 4 1 3v24l-3 6-3 2-8-1-4-5-1-10v-13l3-7z" fill="#22324C"/>
<path transform="translate(1499,420)" d="m0 0 4 4 9 17 4 13 1 6v23l-4 16-6 14-8 11-12 12-14 9-18 10-13 5-17 3-19-1-17-4-16-8-3-3 2-1 19 9 11 3 14 1 18-1 12-3 2-5 14-3 17-9 10-8 8-8 9-14 5-12 3-16v-16l-3-16-5-12-7-12z" fill="#C48FD4"/>
<path transform="translate(1463,438)" d="m0 0 2 3v74l-1 1h-5l1-3h2l-3-26-2-4h-8l-2 4-2 1 1-7 13-33z" fill="#FBF7FB"/>
<path transform="translate(352,435)" d="m0 0h24v1l-22 1 6 2 5 12 19 53 5 14-2 4-5-3-6-16-9-25-6-16-9-22z" fill="#F5ECF7"/>
<path transform="translate(1231,421)" d="m0 0h10l8 3 1 3 5 3v2l7 2 7 7v7l-3-1-6-8-8-6-9-4-6-1h-10l-12 3-9 5-8 8-5 10-3 14-3-1v-13l5-10 13-13 4-1 1-4 11-4z" fill="#F7EFF8"/>
<path transform="translate(1237,600)" d="m0 0 8 1 4 5 1 4v13l-4 6-3 2h-6l-5-5-2-5v-11l4-8z" fill="#21324C"/>
<path transform="translate(415,468)" d="m0 0 3 3 18 50v2l-5-2-4-6-7-18-3-4-5 1-4 5-5 12-4 1 1-5 10-27z" fill="#F6EEF8"/>
<path transform="translate(1006,462)" d="m0 0h1v29h2l6 14 9 12 5 4h2v-1l12-3 3-1 1-2 1 1 4-7-1-2 4-6 3-3h2l-1 7-5 13-5 4-9 4-4 1h-7l-9-3-6-5-5-8-3-11z" fill="#F4EAF6"/>
<path transform="translate(1029,426)" d="m0 0h9l7 2 7 1 6-1 2 2-1 4-5 6-5-2-6-3-5-1h-12l-12 4-9 7-6 8-5 13-2-3 2-11 5-8 8-7h2v-3l7-4 4-3z" fill="#F8F1F9"/>
<path transform="translate(793,439)" d="m0 0h8v83h-6v-10l1-8-1-48z" fill="#F3E8F6"/>
<path transform="translate(1595,157)" d="m0 0h161l16 2 10 4 10 8 8 10 2 6-3-3-6-8-10-9-10-5-3-1-11-1-154-1-10-1z" fill="#ECD1E4"/>
<path transform="translate(1026,433)" d="m0 0h12l9 3 5 3h2l5-6h3v27h-3l-5-13-4-6-9-4-11-1-9 3-8 7-5 1-6 8-4 5-3 8h-1l1-8 6-12 7-7 8-5z" fill="#22334D"/>
<path transform="translate(1625,432)" d="m0 0h34l3 7 3 10-7-5-2-3v-7h-25l-1 2-1 9v11l2 6 6 1 7-3-1 7-3 6h-15z" fill="#F6ECF6"/>
<path transform="translate(1191,460)" d="m0 0h1v23l3 10 7 14v-2l4 1 1 2 5 3 6 5 10 3h8l10-4 5-4 6-10 3 4h1l4-2-2 5-8 7-10 5-9 2h-9l-10-2-8-4-10-9-6-10-3-9-1-6v-14l1-7z" fill="#22334D"/>
<path transform="translate(1435,592)" d="m0 0 3 1 1 23 2 4-3 1 1 5 3 3-1 1h-11v-2h2l1-7-11-1 1-6 11-21z" fill="#22324C"/>
<path transform="translate(590,439)" d="m0 0h5v83h-9v-4h3l1-10 1-36v-21l-1-3z" fill="#F9F1F7"/>
<path transform="translate(1307,601)" d="m0 0h8v8l4 14 2-3 2-8v-8l-1-3h11l-4 8-7 27-4 7-3 1h-7v-3l7-2 1-1v-10l-8-24z" fill="#21324C"/>
<path transform="translate(1061,498)" d="m0 0h1v29l-5-2-3-3-4 1-8 4-6 1h-9l-13-4-8-6-7-8-3-6 1-4 5 10 3 3h3l5 5 11 6 5 1h7l11-4 6-4 7-18z" fill="#21324B"/>
<path transform="translate(1485,203)" d="m0 0h8l8 3 7 5 6 10 1 12-3 9-6 7-8 5h-7v-3l9-4 6-5h2l2-7v-13l-5-8-3-2v-2l-4-1-9-3-10 3-6 6h-5l2-4 5-4 6-3z" fill="#22324C"/>
<path transform="translate(1227,427)" d="m0 0h10l9 2 11 6 6 6-1 2-1-1-2 2v3l2 8v6l-2-2-3-12-6-10-8-5-4-1h-14l-10 5-3 4h-6l-2 4h-2l-1 4-2-1-1 6h-2l-2 2 1-5 5-8 8-8 10-5z" fill="#23344E"/>
<path transform="translate(1583,203)" d="m0 0 11 2 6 4 7 8 2 5 1 10-2 8-6 8-7 5-3 1h-8l1-3 9-3 6-4 5-7 1-5-1-8-1-6h-2l-2-5-12-6h-8l-8 4-2 2h-3v2h-2v2l-4 3 1-5 4-5 8-5z" fill="#20314B"/>
<path transform="translate(1404,592)" d="m0 0h8l4 6 1 8-4 9-8 9-1 2h8l3-2h3v5l-1 1-12 1-7-1 1-6 11-14 1-3v-8l-3-3-3 1-4 8-3-1 1-7z" fill="#22334D"/>
<path transform="translate(1353,592)" d="m0 0h8l4 5 1 10-4 8-9 11 10-1 4-1-1 6h-20l2-5 12-16v-10l-2-3-4 1-3 7-3 1-1-5 3-6z" fill="#22334D"/>
<path transform="translate(1666,429)" d="m0 0 4 1v25l-4-2-7-20h-34l-5 1h-7l-1-1-8-1-1-2z" fill="#263751"/>
<path transform="translate(1202,468)" d="m0 0h1l1 13 4 7 4 11 6 8 6 5 6 4 1 2-8 1-8-4-8-9-4-11-1-6z" fill="#F4EBF6"/>
<path transform="translate(1379,596)" d="m0 0h5l2 2 1 7v17l-2 5-4 1-4-5v-23z" fill="#F4DDCC"/>
<path transform="translate(1626,423)" d="m0 0h10l8 2 12-1 5-1 8 2 3 4-1 3v-2l-68-1 1-3 9 1 3-2h10z" fill="#FDFCFD"/>
<path transform="translate(449,189)" d="m0 0h1l4 28 5 17 7 12 6 7 11 7 12 6-3 1-9-4-9-6-5-3v-2l-4-2-8-14-4-10-3-5h-2l-4 10-1-4 4-18z" fill="#23344E"/>
<path transform="translate(460,435)" d="m0 0h21l-1 4-2 4-2 3-1 5-3 5-4 9-3 12-5 2-2 4h-2l3-10 11-30 9-6-19-1z" fill="#F1E4F4"/>
<path transform="translate(459,435)" d="m0 0 21 1-4 4-5 3-14 38-10 26-2 1 1-8 10-26 11-28v-4l-11-4v-2z" fill="#273852"/>
<path transform="translate(1626,475)" d="m0 0h14l2 4v5l-1 1h-10l-3 7-2 24h35v1h-36v-41z" fill="#F2E4F2"/>
<path transform="translate(456,222)" d="m0 0 2 4h2v4h2l5 10v2l3 1 4 5 15 11 5 3 1 2h-6l-13-7-9-8-8-13-3-8z" fill="#F3E0F3"/>
<path transform="translate(1274,604)" d="m0 0h7l1 1v24l23 1v1h-38v-1l9-1-2-1z" fill="#EFD5CB"/>
<path transform="translate(630,455)" d="m0 0h4l2 4-4 3h-3l-3 9-3 8h-15v-12l4 5 7-1 4-6v-4l2-4z" fill="#F8F2F9"/>
<path transform="translate(1626,502)" d="m0 0h2l3 11h2v-2h5l2-1 7 1h3l4-1 2 3 4-6 3-1 1-4h1l-1 9-2 5h-36z" fill="#FCF9FC"/>
<path transform="translate(1238,604)" d="m0 0 5 1 3 7v9l-2 5-5 2-4-5-1-4v-10z" fill="#F6DFCC"/>
<path transform="translate(1214,594)" d="m0 0h4l1 6 6 2-1 2h-5l1 22 5 1-1 4h-7l-2-1-1-3v-20l1-2-5-1-1-2 4-2z" fill="#24344E"/>
<path transform="translate(990,477)" d="m0 0h2l2 18 4 11 6 9 5 5v2l-6-1-6-7-6-10-3-8-1-5v-9z" fill="#F5ECF7"/>
<path transform="translate(1289,604)" d="m0 0h6l1 1v23l-1 1h-6l-2-3v-20z" fill="#F2D8CC"/>
<path transform="translate(471,423)" d="m0 0 3 1 7 4 1 4-1 3h-25v-3l1-2z" fill="#FDFCFD"/>
<path transform="translate(857,498)" d="m0 0h2v27l-4 1-9-1 2-5 8-21z" fill="#263751"/>
<path transform="translate(1647,457)" d="m0 0h2v35l-3-1-5-12-1-7 6-14z" fill="#22324C"/>
<path transform="translate(629,463)" d="m0 0h2l1 16-1 19-3-1-5-14-2-3 4-9z" fill="#32455E"/>
<path transform="translate(653,498)" d="m0 0h2v27l-4 1-9-1 7-18z" fill="#2F415A"/>
<path transform="translate(1671,492)" d="m0 0 2 1-1 27-19-1v-1h8l3-10 5-13z" fill="#21324B"/>
<path transform="translate(1605,433)" d="m0 0h7v46l-2-1-2-9-1-21z" fill="#FDFCFD"/>
<path transform="translate(647,435)" d="m0 0 5 1 1 7v17h-4l-7-19v-5z" fill="#31445D"/>
<path transform="translate(420,438)" d="m0 0h6l3 3v8l2 7 2 10v10l-2-2-11-31z" fill="#F5ECF6"/>
<path transform="translate(814,511)" d="m0 0 4 4 2 4 3-2h14l6-2 2 2 5-4-1 7-1 2h-34z" fill="#FCFAFD"/>
<path transform="translate(1059,433)" d="m0 0h3v27h-3l-5-13-4-6-3-2v-2l7 2z" fill="#22334C"/>
<path transform="translate(1464,430)" d="m0 0h5l-2 4-1 4-2-1-14 37-12 30-2 1 2-9 11-28z" fill="#263750"/>
<path transform="translate(1025,436)" d="m0 0h7l4 1-2 4-6 4h-9l-1 5-3 3-5-1 2-5 7-8z" fill="#F9F2F9"/>
<path transform="translate(1290,601)" d="m0 0h7l3 3 1 3 1 20 3 1v2h-10v-25l-7-1z" fill="#21324C"/>
<path transform="translate(1266,601)" d="m0 0h6l2 3v24l6 1v1h-14v-2h2v-23z" fill="#22324C"/>
<path transform="translate(1188,469)" d="m0 0h1l2 19 5 13 6 8 1 3-6-2-5-5-5-15-2-10z" fill="#F4EAF6"/>
<path transform="translate(612,482)" d="m0 0h11l3 7v5l-13-1-3-5z" fill="#FCF8FC"/>
<path transform="translate(1030,435)" d="m0 0 11 1 10 5 5 8 1 4-2 1-5-3-3-6-13-4 2-4-6-1z" fill="#F4EAF6"/>
<path transform="translate(1257,501)" d="m0 0 3 4h1l4-2-2 5-8 7-10 5-8 1 3-3 10-6z" fill="#22334D"/>
<path transform="translate(1061,498)" d="m0 0h1v29l-5-2-3-3-3-2 4-3v4h3v-8h-2l2-9z" fill="#20304A"/>
<path transform="translate(1735,157)" d="m0 0h21l16 2 10 4 10 8 8 10 2 6-3-3-6-8-10-9-10-5-3-1-29-2-6-1z" fill="#FAEBF7"/>
<path transform="translate(362,441)" d="m0 0 1 2h2l6 17 6 19 3 8 3 9-1 3-4-9-16-45z" fill="#22324C"/>
<path transform="translate(1380,403)" d="m0 0m-1 1m-2 1h2v2l-13 9-10 9-5 6-8 13-1 2h-2l2-7 8-12 7-8 13-10z" fill="#C48FD4"/>
<path transform="translate(1672,204)" d="m0 0h14l8 4 7 7 2 4v12l-2-4-3-9-2-5-4-2-4-3-10-2-11 3-4 2v-3z" fill="#22324C"/>
<path transform="translate(1307,601)" d="m0 0h8v8l4 14 1 5-1 1-1 7h-1l-2-11-7-21z" fill="#23344D"/>
<path transform="translate(951,458)" d="m0 0h3v23l-5 1-1-1v-16l1-6z" fill="#FEFDFE"/>
<path transform="translate(459,435)" d="m0 0 21 1-4 4-5 3-3 7-1-4v-4l-11-4v-2z" fill="#22334C"/>
<path transform="translate(363,527)" d="m0 0h5l14 11-1 3-5-2-2-5v1 3l-5-1-8-7v-2z" fill="#FCF7FB"/>
<path transform="translate(1610,497)" d="m0 0h2v19h-9l5-16z" fill="#FDFCFD"/>
<path transform="translate(608,523)" d="m0 0h35l-1 3h-29l-14-1v-1z" fill="#33465F"/>
<path transform="translate(1212,431)" d="m0 0h3v2l2 1-5 4-1 2h-6l-2 4h-2l-1 4-2-1-1 6h-2l-2 2 1-5 5-8 8-8z" fill="#23334D"/>
<path transform="translate(1488,517)" d="m0 0 2 1 1 4-5 5-3 2h-4l-3-4-1-5h13z" fill="#FDFAFC"/>
<path transform="translate(1191,460)" d="m0 0h1v23l3 10 5 11-1 3-6-10-3-9-1-6v-14l1-7z" fill="#24354F"/>
<path transform="translate(1055,513)" d="m0 0h3v8h-3l-1-6zm-2 4m-1 1m-1 1m-2 1h2l-1 3-8 4-6 1h-9l-5-1-2-4 9 2h7l11-4z" fill="#2A3C55"/>
<path transform="translate(1207,441)" d="m0 0 1 3-4 10-1 5-1 33-2-3-1-4v-22l3-13v-2h2l2-5z" fill="#23344E"/>
<path transform="translate(638,516)" d="m0 0 4 3v2l2 1h-30l2-2 17-3z" fill="#FDFCFD"/>
<path transform="translate(1399,440)" d="m0 0 3 1 5 16 5 12 3 8 3 11-3-3-16-42z" fill="#24344E"/>
<path transform="translate(610,435)" d="m0 0h30l2 1v2h-34v-2z" fill="#33465F"/>
<path transform="translate(1628,432)" d="m0 0h31l3 7 3 10-7-5-2-3v-7l-28-1z" fill="#E5CEEB"/>
<path transform="translate(1648,462)" d="m0 0h1v27h-1l-2-6-2-3-1-9 2-6v-2z" fill="#33465F"/>
<path transform="translate(610,432)" d="m0 0 9 1 21 1v1l-30 1h-20l-4-2z" fill="#ECD8ED"/>
<path transform="translate(1625,517)" d="m0 0h36l-1 3h-29l-7-1z" fill="#33465F"/>
<path transform="translate(1588,528)" d="m0 0 14 7 3 3v3h-8l-5-5-4-5z" fill="#FDFBFD"/>
<path transform="translate(813,523)" d="m0 0h31l3 3h-29l-5-1z" fill="#33465F"/>
<path transform="translate(1390,514)" d="m0 0h8l8 4-4 2h-19v-3z" fill="#263851"/>
<path transform="translate(353,430)" d="m0 0h7l18 3-2 2-25 1-1-3z" fill="#FEFDFE"/>
<path transform="translate(1603,430)" d="m0 0h53v1l-30 1-3 2h-3-7l-1-1-8-1z" fill="#1F2F49"/>
<path transform="translate(641,441)" d="m0 0h2l5 14-2 4-5-2-2-4 2-1-2-5v-4h2z" fill="#F7F0F8"/>
<path transform="translate(1384,433)" d="m0 0h8v14l-1 3h-3l-1-5v-3z" fill="#FDFCFD"/>
<path transform="translate(641,430)" d="m0 0h11l4 4-2 7h-1v-6l-13 1-2-5z" fill="#F8F3F9"/>
<path transform="translate(1463,438)" d="m0 0 2 3v74h-1l-1-71-2 1z" fill="#C795D6"/>
<path transform="translate(1465,514)" d="m0 0 1 3h7l2 1v-2l11 1v3h-31v-3l8-1z" fill="#283952"/>
<path transform="translate(653,498)" d="m0 0h2l-1 11-3 1-1 4-3 6v4l-5 1 7-18z" fill="#20314B"/>
<path transform="translate(1383,424)" d="m0 0 3 2v2l7-3h8l4 4-2 1h-17l-4-2z" fill="#F2E6F5"/>
<path transform="translate(1696,411)" d="m0 0 5 1 8 9 5 14h-2l-7-12-9-11z" fill="#FBF5F9"/>
<path transform="translate(815,435)" d="m0 0h8l-1 3-8 1h-3l-4-1-6 2-1-1-9-1v-2z" fill="#24354E"/>
<path transform="translate(400,435)" d="m0 0h29v2l-2 1h-8l-1 2v-2l-13 1-8-1-1-2z" fill="#23344D"/>
<path transform="translate(857,498)" d="m0 0h2l-1 23h-1l-1-10-4 4-1-3 5-13z" fill="#20314A"/>
<path transform="translate(1481,204)" d="m0 0h9l-1 2-10 3-6 6h-5l2-4 5-4z" fill="#21314B"/>
<path transform="translate(647,435)" d="m0 0 5 1v1l-5 1 1 9 2 7h-3l-5-13v-5z" fill="#21314B"/>
<path transform="translate(466,448)" d="m0 0 2 4-10 26-3 1 3-10z" fill="#2A3C55"/>
<path transform="translate(376,435)" d="m0 0h8v2l-2 1h-9l-1 4-1-3-5-1-7 1-6-2v-1z" fill="#24354E"/>
<path transform="translate(378,270)" d="m0 0h9v1l-13 2 13 2v1l-21-1-5-1v-2z" fill="#C48FD4"/>
<path transform="translate(413,466)" d="m0 0h2l-2 9-8 22-2 1 1-8z" fill="#253750"/>
<path transform="translate(813,429)" d="m0 0 7 2 3 3-5 1h-25l1-2 18-1z" fill="#FEFDFE"/>
<path transform="translate(1433,602)" d="m0 0h1v15h-8l5-13z" fill="#E1BFD2"/>
<path transform="translate(1478,503)" d="m0 0 4 4 1 6h3l1 4h-9z" fill="#FAF5FA"/>
<path transform="translate(1775,161)" d="m0 0 7 2 10 8 8 10 2 6-3-3-6-8-10-9-8-5z" fill="#FAF3F9"/>
<path transform="translate(577,534)" d="m0 0 7 1 1 3 3 1-2 3-7-1-3-2z" fill="#FDF9FC"/>
<path transform="translate(856,496)" d="m0 0 3 2-3 3-5 14-2-4v-2l-2-1 4-6v-2z" fill="#F5EBF6"/>
<path transform="translate(1061,433)" d="m0 0h1v27h-1l-1-11-3-1-2-6 5-3z" fill="#32445D"/>
<path transform="translate(622,479)" d="m0 0 4 1 2 9h2l1-2v11l-3-1-5-14-2-3z" fill="#21314B"/>
<path transform="translate(420,429)" d="m0 0 5 1 2 1v2l2 1-7 1h-14v-1l7-2 1-2z" fill="#FEFDFE"/>
<path transform="translate(433,510)" d="m0 0 8 8-1 8-3 1-4-11z" fill="#22324C"/>
<path transform="translate(650,500)" d="m0 0 1 4-5 14-2-4 2-6h-2v-6z" fill="#F5EBF6"/>
<path transform="translate(657,499)" d="m0 0 1 2 1 5 2 5-1 5h-2l-1 10h-1v-26z" fill="#FDFCFD"/>
<path transform="translate(371,468)" d="m0 0 1 2h2l3 9 3 8 3 9-1 3-4-9-7-19z" fill="#24354F"/>
<path transform="translate(1227,427)" d="m0 0h10l-2 1v2l-11 1-5 2h-4v-3z" fill="#293A54"/>
<path transform="translate(714,751)" d="m0 0h1v21l-1 10-2-1v-20h1z" fill="#ECD1E4"/>
<path transform="translate(1464,430)" d="m0 0h5l-2 4-1 4-2-1-6 16-2-1 3-9z" fill="#263851"/>
<path transform="translate(1559,221)" d="m0 0h2v12l2 7 1 4 4 2 2 3-4-1-6-8-2-6v-10z" fill="#253650"/>
<path transform="translate(586,435)" d="m0 0 22 1-1 5-2-1v-2l-11 1-8-1z" fill="#20314B"/>
<path transform="translate(976,403)" d="m0 0 2 2-12 11-4-2v-2z" fill="#F7EAF4"/>
<path transform="translate(798,522)" d="m0 0h15v3l-22 1v-3z" fill="#22324C"/>
<path transform="translate(1026,433)" d="m0 0h12l9 3-1 3-10-3-12 1z" fill="#2C3E58"/>
<path transform="translate(1612,515)" d="m0 0 4 1v2l9-2-1 3-21 1v-3z" fill="#21324C"/>
<path transform="translate(1671,488)" d="m0 0m-3 1 5 2-1 2-3 4-3 8-2-4v-2l-2-2 5-6z" fill="#F4E9F5"/>
<path transform="translate(1586,404)" d="m0 0 4 1-11 9-4 2-1-4 10-7z" fill="#F5E5F1"/>
<path transform="translate(1385,607)" d="m0 0h1v19l-5 2-3-3 1-3 5-2z" fill="#F8F1F9"/>
<path transform="translate(1668,505)" d="m0 0 2 1v10l-1 2-5-2-2-2 3-1 2-6z" fill="#33465F"/>
<path transform="translate(1383,404)" d="m0 0 2 1-10 10-6-1 5-5z" fill="#F5E4F1"/>
<path transform="translate(593,522)" d="m0 0h15v2l-17 2h-5v-3z" fill="#23344E"/>
<path transform="translate(388,513)" d="m0 0h2l4 6 1 4-2 4-2-1-3-8z" fill="#21314B"/>
<path transform="translate(855,510)" d="m0 0 2 1v11l-3 2-3-3z" fill="#33465F"/>
<path transform="translate(1307,500)" d="m0 0 1 3-8 15-4 2 2-4 8-15z" fill="#C48FD4"/>
<path transform="translate(1392,514)" d="m0 0 9 1 5 3-4 2-9-1 2-1v-2l-4-1z" fill="#21314B"/>
<path transform="translate(1477,429)" d="m0 0h10l-1 3-10 1-1 2-3-3z" fill="#283953"/>
<path transform="translate(1532,1149)" d="m0 0h1l-1 11-3 9h-1v-11l3-5z" fill="#D7B0DD"/>
<path transform="translate(1201,440)" d="m0 0h2v4h-2l-1 4-2-1-1 6h-2l-2 2 1-5 5-8z" fill="#25364F"/>
<path transform="translate(1529,1012)" d="m0 0h1l1 6v9l-2 5h-1v-15z" fill="#293B54"/>
<path transform="translate(1020,523)" d="m0 0 9 2h10l3 2-6 1h-9l-5-1z" fill="#33465F"/>
<path transform="translate(770,405)" d="m0 0h2l-2 4-5 5-5-1v-2z" fill="#EFD9E9"/>
<path transform="translate(513,271)" d="m0 0 14 1 3 2-16 1z" fill="#33465F"/>
<path transform="translate(1296,520)" d="m0 0v3l-9 10-4 3h-2l1-3 8-7z" fill="#BD8BCE"/>
<path transform="translate(1551,219)" d="m0 0h1v21l-2-1-1-9v-8z" fill="#FBF1F9"/>
<path transform="translate(1060,447)" d="m0 0h1v14l-2-1-3-11h4z" fill="#21314B"/>
<path transform="translate(1297,420)" d="m0 0h2l6 8 2 8-3-3-7-11z" fill="#FCF7F9"/>
<path transform="translate(481,286)" d="m0 0h4v2h-3v2h-2l-1 3-6 1 4-6z" fill="#F7EDF8"/>
<path transform="translate(653,494)" d="m0 0 5 1-1 5-1-2-3 1-2 2-2-3 1-3z" fill="#F9F3F9"/>
<path transform="translate(1662,431)" d="m0 0h4l2 3v8l-3 1-1-7z" fill="#33465F"/>
<path transform="translate(791,436)" d="m0 0h17l-1 2-6 2-1-1-9-1z" fill="#20304A"/>
<path transform="translate(1381,519)" d="m0 0 11 1-4 2h-2l-1 3-5-1z" fill="#FAF5FA"/>
<path transform="translate(629,463)" d="m0 0h2v7l-4 1-1 5h-1l1-7z" fill="#20304A"/>
<path transform="translate(1477,433)" d="m0 0h7v2h-2v2h-3l-1 12h-1z" fill="#FCF9FC"/>
<path transform="translate(1391,507)" d="m0 0h1v7l-7 2 2-5z" fill="#F5ECF6"/>
<path transform="translate(527,272)" d="m0 0h12l1 2-6 1h-12v-1l5-1z" fill="#C48FD4"/>
<path transform="translate(1442,489)" d="m0 0 1 3-5 12-2 1 2-9 2-6z" fill="#253650"/>
<path transform="translate(374,532)" d="m0 0 8 6-1 3-5-2z" fill="#FEFDFE"/>
<path transform="translate(1222,519)" d="m0 0h16l-2 3h-9l-5-1z" fill="#273952"/>
<path transform="translate(1529 1e3)" d="m0 0 2 1v14l-3-1v-8z" fill="#C48FD4"/>
<path transform="translate(1431,605)" d="m0 0h2l-1 4-1 6v2h-5l4-10z" fill="#F0E0EE"/>
<path transform="translate(450,501)" d="m0 0 1 2-2 7-4 2 1-5 2-5z" fill="#F2E7F4"/>
<path transform="translate(1207,441)" d="m0 0 1 3-4 10-1 5h-1v-11h2l2-5z" fill="#253650"/>
<path transform="translate(353,436)" d="m0 0h16l-3 2-7 1-6-2z" fill="#20314A"/>
<path transform="translate(506,270)" d="m0 0h7v2l2 1-1 2h-5l-1-4z" fill="#20314B"/>
<path transform="translate(608,513)" d="m0 0 1 2h2l2 7h-5z" fill="#FEFDFE"/>
<path transform="translate(1456,452)" d="m0 0 1 4-4 10-2-1 3-10z" fill="#273852"/>
<path transform="translate(1399,440)" d="m0 0 3 1 2 6v5l-2-1-3-8z" fill="#23334D"/>
<path transform="translate(1464,430)" d="m0 0h5l-2 4-1 4-4-1z" fill="#20304A"/>
<path transform="translate(1385,429)" d="m0 0 13 1-1 5-2-1v-2l-13-1z" fill="#1F2F49"/>
<path transform="translate(1662,515)" d="m0 0 5 2 1 2h-15v-1h8z" fill="#1E2E48"/>
<path transform="translate(481,260)" d="m0 0 6 2 8 4-3 1-9-4-2-1z" fill="#263750"/>
<path transform="translate(478,252)" d="m0 0 4 2 8 6-2 1-5-3-5-5z" fill="#FEFDFE"/>
</svg>
